# xmcd
#
# Track frame offsets:
#	150
#	15349
#	29489
#	41899
#	54568
#	67195
#	79428
#	92848
#	104812
#	116948
#
# Disc length: 1763 seconds
#
# Revision: 1
# Processed by: cddbd v1.5.2PL0 Copyright (c) Steve Scherf et al.
# Submitted via: audiograbber 1.83.01
#
DISCID=9306e10a
DTITLE=Moe Bandy - Country Classics
DYEAR=1900
DGENRE=Country
TTITLE0=Hank Williams, You Wrote My Life
TTITLE1=I Cheated Me Right out of You
TTITLE2=It's a Cheatin' Situation
TTITLE3=Barstool Mountain
TTITLE4=Two Lonely People
TTITLE5=Just Good Old Boys
TTITLE6=Following the Feeling
TTITLE7=She's Not Cheatin' (She's Just Getting Even)
TTITLE8=Let's Get Over Them Together
TTITLE9=Too Old to Die Young
EXTD=
EXTT0=
EXTT1=
EXTT2=
EXTT3=
EXTT4=
EXTT5=
EXTT6=
EXTT7=
EXTT8=
EXTT9=
PLAYORDER=
